<svg width="200" height="200" viewBox="0 0 200 200" fill="none" xmlns="http://www.w3.org/2000/svg">
<circle cx="100" cy="100" r="100" fill="#555555"/>
<g clip-path="url(#clip0_4_1252)">
<path d="M104.169 87.4997H122.919L120.835 95.833H104.169V133.333H95.8352V95.833H79.1686V87.4997H95.8352V79.6997C95.8352 72.2705 96.6102 69.5747 98.0602 66.858C99.4811 64.1739 101.676 61.9789 104.36 60.558C107.077 59.108 109.773 58.333 117.202 58.333C119.377 58.333 121.285 58.5413 122.919 58.958V66.6663H117.202C111.685 66.6663 110.006 66.9913 108.294 67.908C107.027 68.583 106.085 69.5247 105.41 70.7913C104.494 72.5038 104.169 74.183 104.169 79.6997V87.4997Z" fill="#B8B8B8"/>
</g>
<defs>
<clipPath id="clip0_4_1252">
<rect width="100" height="100" fill="white" transform="translate(50.001 49.9995)"/>
</clipPath>
</defs>
</svg>
