<svg width="200" height="200" viewBox="0 0 200 200" fill="none" xmlns="http://www.w3.org/2000/svg">
<circle cx="100" cy="100" r="100" fill="#555555"/>
<g clip-path="url(#clip0_4_1261)">
<path d="M120.018 84.4819C122.503 84.4819 124.518 82.4672 124.518 79.9819C124.518 77.4967 122.503 75.4819 120.018 75.4819C117.532 75.4819 115.518 77.4967 115.518 79.9819C115.518 82.4672 117.532 84.4819 120.018 84.4819Z" fill="#B8B8B8"/>
<path d="M100 80.7422C96.1914 80.7422 92.4683 81.8716 89.3015 83.9876C86.1347 86.1035 83.6665 89.111 82.209 92.6298C80.7515 96.1485 80.3702 100.02 81.1132 103.756C81.8562 107.491 83.6903 110.923 86.3834 113.616C89.0765 116.309 92.5077 118.143 96.2432 118.886C99.9787 119.629 103.851 119.248 107.369 117.79C110.888 116.333 113.896 113.864 116.012 110.698C118.128 107.531 119.257 103.808 119.257 99.9991C119.257 94.8918 117.228 89.9938 113.617 86.3824C110.005 82.771 105.107 80.7422 100 80.7422ZM100 112.499C97.5278 112.499 95.111 111.766 93.0554 110.392C90.9998 109.019 89.3976 107.067 88.4515 104.783C87.5055 102.499 87.2579 99.9852 87.7402 97.5604C88.2225 95.1357 89.413 92.9084 91.1612 91.1602C92.9094 89.4121 95.1366 88.2216 97.5614 87.7392C99.9862 87.2569 102.5 87.5045 104.784 88.4506C107.068 89.3967 109.02 90.9988 110.393 93.0544C111.767 95.11 112.5 97.5268 112.5 99.9991C112.5 103.314 111.183 106.494 108.839 108.838C106.495 111.182 103.315 112.499 100 112.499Z" fill="#B8B8B8"/>
<path d="M100.001 69.2564C110.014 69.2564 111.2 69.2945 115.154 69.4751C117.532 69.5034 119.888 69.9402 122.118 70.7664C123.735 71.3904 125.204 72.346 126.429 73.5717C127.655 74.7974 128.611 76.2661 129.235 77.8833C130.061 80.1133 130.498 82.4687 130.526 84.8467C130.706 88.8008 130.745 89.987 130.745 99.9998C130.745 110.013 130.707 111.199 130.526 115.153C130.498 117.531 130.061 119.886 129.235 122.116C128.611 123.734 127.655 125.202 126.429 126.428C125.204 127.654 123.735 128.609 122.118 129.233C119.888 130.059 117.532 130.496 115.154 130.525C111.201 130.705 110.015 130.743 100.001 130.743C89.9875 130.743 88.8018 130.705 84.8481 130.525C82.4701 130.496 80.1147 130.059 77.8847 129.233C76.2675 128.609 74.7988 127.654 73.5731 126.428C72.3474 125.202 71.3918 123.734 70.7678 122.116C69.9416 119.886 69.5048 117.531 69.4765 115.153C69.2962 111.199 69.2578 110.013 69.2578 99.9998C69.2578 89.987 69.2959 88.8008 69.4765 84.8467C69.5048 82.4687 69.9416 80.1133 70.7678 77.8833C71.3918 76.266 72.3473 74.7973 73.573 73.5715C74.7987 72.3458 76.2674 71.3901 77.8847 70.7661C80.1147 69.9399 82.4701 69.5031 84.8481 69.4748C88.8022 69.2945 89.9884 69.2561 100.001 69.2561V69.2564ZM100.001 62.4995C89.8168 62.4995 88.5397 62.5426 84.54 62.7251C81.4295 62.7876 78.3521 63.377 75.4387 64.4683C72.9473 65.4317 70.6846 66.9051 68.7957 68.794C66.9068 70.6829 65.4335 72.9456 64.47 75.437C63.3785 78.3509 62.7891 81.4288 62.7268 84.5398C62.5443 88.538 62.5012 89.8151 62.5012 99.9995C62.5012 110.184 62.5443 111.461 62.7268 115.461C62.7892 118.572 63.3785 121.65 64.47 124.564C65.4335 127.055 66.9068 129.318 68.7957 131.207C70.6846 133.095 72.9473 134.569 75.4387 135.532C78.3526 136.624 81.4305 137.213 84.5415 137.275C88.5397 137.456 89.8168 137.5 100.001 137.5C110.186 137.5 111.463 137.456 115.462 137.274C118.573 137.212 121.651 136.622 124.565 135.531C127.057 134.567 129.319 133.094 131.208 131.205C133.097 129.316 134.571 127.053 135.534 124.562C136.625 121.648 137.215 118.57 137.277 115.459C137.458 111.461 137.501 110.184 137.501 99.9995C137.501 89.8151 137.458 88.5379 137.276 84.5383C137.213 81.4278 136.624 78.3504 135.532 75.437C134.569 72.9458 133.095 70.6835 131.206 68.7949C129.318 66.9063 127.055 65.4331 124.564 64.4698C121.65 63.3784 118.572 62.789 115.461 62.7267C111.463 62.5426 110.186 62.4995 100.001 62.4995Z" fill="#B8B8B8"/>
</g>
<defs>
<clipPath id="clip0_4_1261">
<rect width="100" height="100" fill="white" transform="translate(50.001 49.9995)"/>
</clipPath>
</defs>
</svg>
