<svg width="48" height="40" viewBox="0 0 48 40" fill="none" xmlns="http://www.w3.org/2000/svg">
<path fill-rule="evenodd" clip-rule="evenodd" d="M20.4138 24.2991C20.4138 22.6056 20.5744 20.964 20.8759 19.4025C20.8415 19.7464 20.8239 20.0958 20.8236 20.4496C20.8172 25.7907 24.7403 30.123 29.586 30.1261C33.9092 30.1289 36.789 27.148 37.8532 23.5794C40.017 16.3219 32.3583 3.81614 41.7318 0C40.6423 5.71768 43.5987 10.3766 45.7274 15.6019C56.7422 42.6419 20.4138 47.7389 20.4138 24.2991Z" fill="#A37551"/>
<path fill-rule="evenodd" clip-rule="evenodd" d="M41.718 20.103C45.0009 35.8713 20.4138 41.9156 20.4138 24.299C20.4138 22.6055 20.5744 20.964 20.8759 19.4025C20.8415 19.7464 20.8239 20.0957 20.8236 20.4496C20.8172 25.7907 24.7403 30.123 29.586 30.1261C33.9092 30.1288 36.789 27.1479 37.8532 23.5794C39.9303 16.6124 32.9556 4.80848 40.6867 0.498901C36.928 3.17653 40.2605 13.102 41.718 20.103Z" fill="#A37551"/>
<path fill-rule="evenodd" clip-rule="evenodd" d="M41.718 20.103C42.8498 25.5384 40.6695 29.8184 37.3265 32.3722C30.9714 37.2268 20.4138 35.8431 20.4138 24.2991C20.4138 22.6056 20.5744 20.964 20.8759 19.4026C20.8415 19.7464 20.8239 20.0958 20.8236 20.4496C20.818 25.1914 23.9096 29.1382 27.9941 29.9663C33.4636 31.3293 40.9792 28.0255 41.718 20.103Z" fill="#A37551"/>
<path fill-rule="evenodd" clip-rule="evenodd" d="M37.3422 32.3647C37.7893 32.1405 47.7702 26.9984 45.7274 15.6019C56.7422 42.6419 20.4138 47.7389 20.4138 24.2991C20.4138 35.8431 30.9714 37.2268 37.3265 32.3722C37.3317 32.3695 37.337 32.3671 37.3422 32.3647Z" fill="#A37551"/>
<path fill-rule="evenodd" clip-rule="evenodd" d="M27.6163 21.6084C27.1405 23.2441 26.5238 24.7915 25.7936 26.2282C25.9232 25.9039 26.0382 25.5707 26.1383 25.2292C27.6459 20.0714 25.0745 14.952 20.3947 13.7946C16.2194 12.762 12.6 14.9551 10.5688 18.1482C6.4384 24.643 10.32 38.5476 0.193115 40C2.85296 34.7369 1.30733 29.5323 0.720154 23.9779C-2.31733 -4.76517 34.2064 -1.03259 27.6163 21.6084Z" fill="#A37551"/>
<path fill-rule="evenodd" clip-rule="evenodd" d="M5.85804 20.5855C7.12017 4.57234 32.569 4.59228 27.6161 21.6085C27.1402 23.2442 26.5235 24.7915 25.7933 26.2282C25.9229 25.9039 26.0379 25.5707 26.138 25.2293C27.6456 20.0714 25.0742 14.952 20.3944 13.7946C16.2192 12.762 12.5997 14.9551 10.5685 18.1482C6.60321 24.383 10.0217 37.4466 1.34253 39.7673C5.72581 38.0765 5.29738 27.6951 5.85804 20.5855Z" fill="#A37551"/>
<path fill-rule="evenodd" clip-rule="evenodd" d="M5.85815 20.5855C6.29293 15.0659 9.60234 11.4509 13.5493 9.78076C21.0527 6.60557 30.8617 10.4578 27.6162 21.6084C27.1403 23.2442 26.5236 24.7915 25.7934 26.2282C25.923 25.9039 26.038 25.5707 26.1382 25.2293C27.4765 20.6501 25.5999 16.1016 21.8875 14.3283C16.9872 11.7084 8.79889 13.109 5.85815 20.5855Z" fill="#A37551"/>
<path fill-rule="evenodd" clip-rule="evenodd" d="M13.5328 9.78451C13.0379 9.8942 1.95142 12.4831 0.720667 23.9779C-2.31681 -4.76517 34.2069 -1.03259 27.6169 21.6084C30.8624 10.4578 21.0533 6.60554 13.55 9.78073C13.544 9.7821 13.5384 9.78313 13.5328 9.78451Z" fill="#A37551"/>
</svg>
